<svg width="664" height="872" viewBox="0 0 664 872" fill="none" xmlns="http://www.w3.org/2000/svg">
<g opacity="0.16" clip-path="url(#clip0_1_176)">
<path d="M-139.85 126.639C1.80252 60.5851 170.182 121.87 236.236 263.523C302.29 405.176 241.004 573.555 99.3517 639.609C-42.3011 705.663 -210.681 644.378 -276.734 502.725C-342.788 361.072 -281.503 192.693 -139.85 126.639Z" stroke="#707070"/>
<path d="M-87.4456 239.021C54.208 172.967 222.492 234.05 288.429 375.452C354.366 516.854 292.987 685.031 151.334 751.085C9.68014 817.139 -158.604 756.056 -224.541 614.654C-290.478 473.252 -229.099 305.075 -87.4456 239.021Z" stroke="#707070"/>
<path d="M167.227 120.265C308.881 54.2112 477.165 115.295 543.102 256.696C609.038 398.098 547.66 566.275 406.006 632.329C264.353 698.383 96.0682 637.3 30.1314 495.898C-35.8053 354.496 25.5733 186.319 167.227 120.265Z" stroke="#707070"/>
</g>
<defs>
<clipPath id="clip0_1_176">
<rect width="1060.16" height="871.351" fill="white" transform="translate(-397)"/>
</clipPath>
</defs>
</svg>
